# xmcd
#
# Track frame offsets:
#	150
#	2300
#	8960
#	15350
#	23120
#	29520
#	37067
#	42590
#	49370
#	55000
#	61650
#	64942
#	71817
#	79475
#	83542
#	88885
#	92967
#	98540
#	101880
#	107477
#	114447
#	119855
#	126510
#	129390
#	136290
#	141560
#	144422
#	149452
#	154317
#	162107
#	165920
#	172885
#	178202
#	181940
#	186912
#	190185
#	195937
#	200885
#	204535
#	213650
#	217792
#	222760
#	226387
#	231422
#	236712
#	241262
#	247855
#	252965
#	259097
#	264110
#	270440
#	284445
#	301417
#
# Disc length: 4215 seconds
#
# Revision: 1
# Processed by: cddbd v1.5.1PL0 Copyright (c) Steve Scherf et al.
# Submitted via: CDex 1.50Beta5
#
DISCID=05107535
DTITLE=GENKIサウンドチーム - 首都高バトル01 オリジナルサウンドトラック
DYEAR=2003
DGENRE=Soundtrack
TTITLE0=Zero One
TTITLE1=Jammin'in The Garage
TTITLE2=Crying
TTITLE3=Blue Smoke
TTITLE4=Korosu No List
TTITLE5=Grind Hip
TTITLE6=Cutting Edge
TTITLE7=Blues Explosion
TTITLE8=Suicidal Formation
TTITLE9=Hunter
TTITLE10=Momaeler
TTITLE11=Vampire Killer
TTITLE12=Chrome Fist
TTITLE13=Drifter
TTITLE14=Hell Dive
TTITLE15=Sonic Boom
TTITLE16=Ice Machine Gun
TTITLE17=Master Of Dolls
TTITLE18=Volcano
TTITLE19=Distorted Drive
TTITLE20=Scramble
TTITLE21=Round Around
TTITLE22=Clockwork
TTITLE23=Don't Stop
TTITLE24=Never Don't Stop
TTITLE25=Surrounded
TTITLE26=Sexy Sally
TTITLE27=Warp
TTITLE28=Electro Bomb
TTITLE29=Tidal Wave
TTITLE30=Nu Beat
TTITLE31=Brain Talk
TTITLE32=Get Ready
TTITLE33=Crazy Horse
TTITLE34=Spin
TTITLE35=Full Throttle
TTITLE36=Here We Go
TTITLE37=Razor
TTITLE38=Burning
TTITLE39=Double Attack
TTITLE40=Bullet Of Fire
TTITLE41=Siva
TTITLE42=Joker
TTITLE43=Osaka Ska Ska Parking
TTITLE44=Fatal Moment
TTITLE45=Battle Of The Empire
TTITLE46=No Way Around
TTITLE47=Speed Monster
TTITLE48=Don't Be Hurt
TTITLE49=Glory
TTITLE50=Feel Love
TTITLE51=Step To The Future
TTITLE52=Flash
EXTD=
EXTT0=
EXTT1=
EXTT2=
EXTT3=
EXTT4=
EXTT5=
EXTT6=
EXTT7=
EXTT8=
EXTT9=
EXTT10=
EXTT11=
EXTT12=
EXTT13=
EXTT14=
EXTT15=
EXTT16=
EXTT17=
EXTT18=
EXTT19=
EXTT20=
EXTT21=
EXTT22=
EXTT23=
EXTT24=
EXTT25=
EXTT26=
EXTT27=
EXTT28=
EXTT29=
EXTT30=
EXTT31=
EXTT32=
EXTT33=
EXTT34=
EXTT35=
EXTT36=
EXTT37=
EXTT38=
EXTT39=
EXTT40=
EXTT41=
EXTT42=
EXTT43=
EXTT44=
EXTT45=
EXTT46=
EXTT47=
EXTT48=
EXTT49=
EXTT50=
EXTT51=
EXTT52=
PLAYORDER=
